<svg xmlns="http://www.w3.org/2000/svg" version="1.1" xmlns:xlink="http://www.w3.org/1999/xlink" viewBox="0 0 200 200"><rect width="200" height="200" fill="url('#gradient')"></rect><defs><linearGradient id="gradient" gradientTransform="rotate(0 0.5 0.5)"><stop offset="0%" stop-color="#dee90b"></stop><stop offset="100%" stop-color="#d9e241"></stop></linearGradient></defs><g><g fill="#000000" transform="matrix(4.231404958677686,0,0,4.231404958677686,5.98138330987662,131.33577941863004)" stroke="#000000" stroke-width="0.2"><path d="M10.73-5.36L10.73-5.20Q10.73-2.60 9.66-1.20Q8.58 0.20 6.63 0.20L6.63 0.20Q5.02 0.20 4.03-1.08L4.03-1.08L3.90 0L0.95 0L0.95-15L4.24-15L4.24-9.72Q5.16-10.76 6.61-10.76L6.61-10.76Q8.58-10.76 9.66-9.35Q10.73-7.93 10.73-5.36L10.73-5.36ZM7.43-5.40L7.43-5.40Q7.43-6.92 7.03-7.57Q6.62-8.22 5.78-8.22L5.78-8.22Q4.67-8.22 4.24-7.37L4.24-7.37L4.24-3.17Q4.66-2.33 5.80-2.33L5.80-2.33Q6.96-2.33 7.28-3.47L7.28-3.47Q7.43-4.02 7.43-5.40ZM17.29 0.20L17.29 0.20Q14.86 0.20 13.36-1.25Q11.86-2.71 11.86-5.03L11.86-5.03L11.86-5.30Q11.86-6.92 12.46-8.16Q13.06-9.40 14.21-10.08Q15.36-10.76 16.94-10.76L16.94-10.76Q19.17-10.76 20.46-9.38Q21.75-8.00 21.75-5.53L21.75-5.53L21.75-4.25L15.21-4.25Q15.38-3.36 15.98-2.85Q16.57-2.34 17.52-2.34L17.52-2.34Q19.08-2.34 19.96-3.44L19.96-3.44L21.46-1.66Q20.85-0.81 19.72-0.31Q18.59 0.20 17.29 0.20ZM16.92-8.22L16.92-8.22Q15.48-8.22 15.21-6.31L15.21-6.31L18.53-6.31L18.53-6.56Q18.54-7.35 18.13-7.79Q17.71-8.22 16.92-8.22ZM29.62 0L27.31-3.94L26.39-3.01L26.39 0L23.10 0L23.10-15.01L26.39-15.01L26.39-7.04L26.72-7.48L29.20-10.57L33.14-10.57L29.44-6.22L33.39 0L29.62 0ZM40.40 0L40.30-1.14Q39.26 0.20 37.48 0.20L37.48 0.20Q35.74 0.20 34.85-0.82Q33.96-1.83 33.96-3.72L33.96-3.72L33.96-10.57L37.25-10.57L37.25-3.70Q37.25-2.34 38.56-2.34L38.56-2.34Q39.70-2.34 40.18-3.15L40.18-3.15L40.18-10.57L43.49-10.57L43.49 0L40.40 0Z"></path></g></g></svg>