<svg xmlns="http://www.w3.org/2000/svg" version="1.1" xmlns:xlink="http://www.w3.org/1999/xlink" viewBox="0 0 200 200"><rect width="200" height="200" fill="url('#gradient')"></rect><defs><linearGradient id="gradient" gradientTransform="rotate(360 0.5 0.5)"><stop offset="0%" stop-color="#a3eb0c"></stop><stop offset="100%" stop-color="#dbee01"></stop></linearGradient></defs><g><g fill="#060606" transform="matrix(11.073965287049399,0,0,11.073965287049399,24.253257388282364,178.68489375299063)" stroke="#5ed03e" stroke-width="0"><path d="M3.01-7.47L3.04-7.49Q2.46-8.31 2.13-9.05Q1.81-9.79 1.81-10.59L1.81-10.59Q1.81-12.30 2.92-13.36Q4.03-14.42 5.83-14.42L5.83-14.42Q7.44-14.42 8.50-13.44Q9.55-12.46 9.55-11.01L9.55-11.01Q9.55-9.19 7.55-7.78L7.55-7.78L6.81-7.27L8.99-4.76Q9.53-5.83 9.53-7.11L9.53-7.11L12.29-7.11Q12.29-4.23 10.97-2.49L10.97-2.49L13.13 0L9.46 0L8.80-0.75Q7.98-0.26 7.12-0.03Q6.27 0.21 5.20 0.21L5.20 0.21Q3.09 0.21 1.82-0.90Q0.55-2.01 0.55-3.82L0.55-3.82Q0.55-4.80 1.05-5.61Q1.55-6.41 3.01-7.47L3.01-7.47ZM5.41-2.33L5.41-2.33Q6.27-2.33 7.05-2.73L7.05-2.73L4.49-5.64L4.40-5.59Q3.85-4.90 3.85-4.04L3.85-4.04Q3.85-3.33 4.30-2.83Q4.75-2.33 5.41-2.33ZM4.65-10.63L4.65-10.63Q4.65-9.94 5.39-8.96L5.39-8.96L6.04-9.38Q6.49-9.67 6.70-9.98Q6.90-10.29 6.90-10.77L6.90-10.77Q6.90-11.22 6.59-11.55Q6.28-11.88 5.82-11.88L5.82-11.88Q5.27-11.88 4.96-11.54Q4.65-11.19 4.65-10.63Z"></path></g></g></svg>